# xmcd
#
# Track frame offsets:
# 182
# 13610
# 28647
# 39647
# 51595
# 68385
# 81140
# 93222
# 104062
# 114897
#
# Disc length: 1743 seconds
#
#
# Revision: 0
# Processed by: cddbd v1.5PL3 Copyright (c) Steve Scherf et al.
# Submitted via: FreeRIP 2.53 
#
DISCID=7706cd0a
DTITLE=Perez Prado - Perez Prado y su Orquesta
DYEAR=1989
DGENRE=Latin
TTITLE0=Mangos
TTITLE1=Mambo Jambo
TTITLE2=Patricia
TTITLE3=Tequila
TTITLE4=Prado Mano
TTITLE5=Cerezo Rosa
TTITLE6=Mambo nº5
TTITLE7=Guaglione
TTITLE8=Abril en Portugal
TTITLE9=Rumbalero
EXTD=
EXTT0=
EXTT1=
EXTT2=
EXTT3=
EXTT4=
EXTT5=
EXTT6=
EXTT7=
EXTT8=
EXTT9=
PLAYORDER=
